<?xml version="1.0" encoding="utf-8"?>
<!-- Generator: Adobe Illustrator 16.0.0, SVG Export Plug-In . SVG Version: 6.00 Build 0)  -->
<!DOCTYPE svg PUBLIC "-//W3C//DTD SVG 1.1//EN" "http://www.w3.org/Graphics/SVG/1.1/DTD/svg11.dtd">
<svg version="1.1" id="Layer_1" xmlns="http://www.w3.org/2000/svg" xmlns:xlink="http://www.w3.org/1999/xlink" x="0px" y="0px"
	 width="463px" height="463px" viewBox="0 0 463 463" enable-background="new 0 0 463 463" xml:space="preserve">
<g>
	<path fill="#D9E2E2" d="M182.772,243.251c0,24.147,19.577,43.723,43.722,43.723h147.066c21.686-0.035,39.336-17.45,39.662-39.133
		c0.324-21.681-16.795-39.619-38.468-40.305c8.981-24.74-3.792-52.08-28.534-61.062c-24.741-8.982-52.079,3.792-61.062,28.534
		c-9.925-4.594-21.409-4.386-31.159,0.565c-9.753,4.951-16.699,14.098-18.848,24.82c-2.849-0.576-5.751-0.865-8.658-0.865
		C202.35,199.528,182.772,219.104,182.772,243.251z"/>
	<g>
		<path fill="#FFA600" d="M309.264,243.857l-20.844-18.386l20.106-19.181c0.739-0.705,1.043-1.747,0.8-2.736
			c-0.245-0.988-1.001-1.771-1.983-2.055l-26.762-7.723l9.891-25.901c0.363-0.952,0.188-2.023-0.458-2.812
			c-0.647-0.789-1.668-1.174-2.679-1.011l-27.506,4.435l-2.237-27.616c-0.082-1.015-0.703-1.909-1.627-2.345
			c-0.925-0.436-2.014-0.349-2.856,0.229l-22.936,15.734l-13.934-23.994c-0.512-0.881-1.457-1.424-2.48-1.424
			c-1.024,0-1.97,0.543-2.481,1.424l-15.993,27.542l-27.665-15.966c-0.886-0.511-1.978-0.514-2.865-0.007
			c-0.888,0.506-1.436,1.446-1.438,2.463l-0.066,27.705l-27.77-2.289c-1.019-0.083-2.008,0.38-2.591,1.216s-0.674,1.918-0.236,2.839
			l11.89,25.056l-26.075,9.774c-0.957,0.359-1.649,1.199-1.816,2.203c-0.166,1.004,0.219,2.02,1.011,2.666l21.549,17.564
			l-19.339,19.946c-0.71,0.732-0.974,1.787-0.691,2.765c0.283,0.979,1.07,1.731,2.062,1.977l27.043,6.68l-8.866,26.265
			c-0.325,0.965-0.108,2.029,0.569,2.792s1.713,1.108,2.716,0.906l27.311-5.496l3.319,27.508c0.121,1.01,0.776,1.879,1.718,2.279
			s2.025,0.271,2.845-0.339l22.301-16.611l14.863,22.67c0.526,0.829,1.442,1.329,2.423,1.329c0.038,0,0.075-0.001,0.112-0.003
			c1.023-0.039,1.947-0.618,2.424-1.519L233,298.657l23.535,14.833c0.865,0.545,1.955,0.59,2.862,0.118s1.492-1.389,1.534-2.406
			l1.153-27.682l27.659,3.365c1.014,0.123,2.021-0.302,2.637-1.114c0.615-0.813,0.748-1.892,0.348-2.828l-10.898-25.498
			l26.438-8.755c0.971-0.321,1.695-1.133,1.901-2.131C310.375,245.563,310.029,244.533,309.264,243.857z"/>
		<ellipse fill="#FFDB2D" cx="212.792" cy="226.002" rx="59.017" ry="58.971"/>
		<path fill="#FFCA00" d="M212.794,167.031c-1.479,0-2.943,0.056-4.394,0.163c30.542,2.246,54.623,27.716,54.623,58.808
			s-24.081,56.562-54.623,58.808c1.45,0.106,2.915,0.163,4.394,0.163c32.593,0,59.016-26.402,59.016-58.971
			C271.81,193.434,245.387,167.031,212.794,167.031z"/>
	</g>
	<path fill="#D9E2E2" d="M236.506,246.484c-2.907,0-5.81,0.289-8.658,0.865c-2.148-10.723-9.095-19.869-18.848-24.82
		c-9.75-4.951-21.234-5.159-31.159-0.565c-8.982-24.741-36.32-37.516-61.062-28.534s-37.516,36.321-28.534,61.062
		c-21.673,0.686-38.792,18.624-38.468,40.305c0.326,21.683,17.978,39.098,39.662,39.133h147.066
		c24.145,0,43.722-19.575,43.722-43.723S260.65,246.484,236.506,246.484z"/>
	<ellipse opacity="0.2" cx="229.5" cy="344" rx="155.5" ry="2"/>
</g>
</svg>
