<?xml version="1.0" encoding="utf-8"?>
<!-- Generator: Adobe Illustrator 16.0.0, SVG Export Plug-In . SVG Version: 6.00 Build 0)  -->
<!DOCTYPE svg PUBLIC "-//W3C//DTD SVG 1.1//EN" "http://www.w3.org/Graphics/SVG/1.1/DTD/svg11.dtd">
<svg version="1.1" id="Capa_1" xmlns="http://www.w3.org/2000/svg" xmlns:xlink="http://www.w3.org/1999/xlink" x="0px" y="0px"
	 width="1000px" height="1000px" viewBox="0 0 1000 1000" enable-background="new 0 0 1000 1000" xml:space="preserve">
<g>
	<path fill="#FFA600" d="M991.863,589.078l-106.971-94.359l103.188-98.436c3.791-3.617,5.352-8.967,4.1-14.041
		c-1.254-5.072-5.135-9.092-10.178-10.549l-137.336-39.633l50.758-132.922c1.865-4.883,0.967-10.383-2.352-14.432
		c-3.32-4.047-8.561-6.025-13.746-5.189l-141.16,22.758l-11.48-141.721c-0.422-5.207-3.605-9.795-8.35-12.033
		s-10.334-1.791-14.656,1.174l-117.707,80.746L514.471,7.309C511.844,2.785,506.99,0,501.736,0s-10.105,2.785-12.732,7.309
		l-82.076,141.344L264.955,66.713c-4.545-2.623-10.15-2.635-14.703-0.035c-4.557,2.6-7.369,7.42-7.383,12.643l-0.344,142.178
		l-142.51-11.746c-5.225-0.43-10.303,1.947-13.295,6.238c-2.994,4.291-3.459,9.846-1.215,14.568l61.02,128.584L12.711,409.301
		c-4.914,1.842-8.467,6.152-9.322,11.307c-0.855,5.152,1.123,10.367,5.188,13.678l110.584,90.141L19.916,626.789
		c-3.645,3.76-4.998,9.168-3.547,14.188c1.453,5.02,5.488,8.887,10.584,10.145L165.732,685.4l-45.498,134.787
		c-1.672,4.951-0.559,10.412,2.918,14.328c3.479,3.916,8.793,5.689,13.939,4.652l140.156-28.209l17.033,141.168
		c0.623,5.186,3.986,9.645,8.814,11.699c4.832,2.055,10.396,1.391,14.6-1.74l114.445-85.248l76.279,116.34
		c2.699,4.256,7.4,6.82,12.436,6.82c0.191,0,0.383-0.004,0.576-0.012c5.248-0.203,9.99-3.176,12.438-7.797l66.615-121.885
		l120.779,76.121c4.439,2.797,10.033,3.027,14.691,0.605c4.652-2.422,7.654-7.129,7.871-12.348l5.92-142.059l141.941,17.266
		c5.203,0.633,10.371-1.545,13.531-5.717c3.16-4.174,3.84-9.705,1.785-14.512l-55.93-130.854l135.674-44.928
		c4.984-1.65,8.703-5.818,9.76-10.936C997.562,597.832,995.791,592.545,991.863,589.078z"/>
	<ellipse fill="#FFDB2D" cx="496.777" cy="497.443" rx="302.869" ry="302.635"/>
	<path fill="#FFCA00" d="M496.785,194.811c-7.586,0-15.102,0.287-22.545,0.836c156.738,11.525,280.322,142.236,280.322,301.799
		c0,159.561-123.584,290.271-280.322,301.799c7.443,0.547,14.961,0.836,22.545,0.836c167.268,0,302.867-135.494,302.867-302.633
		C799.652,330.305,664.053,194.811,496.785,194.811z"/>
</g>
</svg>
