<?xml version="1.0" encoding="utf-8"?>
<!-- Generator: Adobe Illustrator 16.0.0, SVG Export Plug-In . SVG Version: 6.00 Build 0)  -->
<!DOCTYPE svg PUBLIC "-//W3C//DTD SVG 1.1//EN" "http://www.w3.org/Graphics/SVG/1.1/DTD/svg11.dtd">
<svg version="1.1" id="Layer_1" xmlns="http://www.w3.org/2000/svg" xmlns:xlink="http://www.w3.org/1999/xlink" x="0px" y="0px"
	 width="1000px" height="1000px" viewBox="0 0 1000 1000" enable-background="new 0 0 1000 1000" xml:space="preserve">
<path fill="#68CCEA" d="M559.44,433.124c-0.076-0.205-0.164-0.4-0.264-0.594L336.272,2.902C335.347,1.121,333.509,0,331.499,0
	s-3.848,1.121-4.773,2.902L103.822,432.53c-0.102,0.193-0.189,0.391-0.264,0.594c-23.492,62.9-21.088,131.18,6.775,192.26
	c27.861,61.084,77.845,107.656,140.744,131.144c25.762,9.621,52.762,14.926,80.257,15.762c0.055,0.002,0.109,0.002,0.164,0.002
	s0.109,0,0.164-0.002c27.494-0.84,54.496-6.143,80.254-15.762c62.896-23.487,112.883-70.062,140.746-131.144
	C580.524,564.304,582.933,496.024,559.44,433.124z"/>
<g>
	<path fill="#5ABCE2" d="M348.687,729.187c-53.431-52.652-83.16-122.967-83.712-197.99c-0.002-0.24,0.012-0.484,0.041-0.725
		L324.923,6.379L103.822,432.53c-0.102,0.193-0.189,0.391-0.264,0.594c-23.492,62.9-21.088,131.18,6.775,192.26
		c27.861,61.084,77.845,107.656,140.744,131.144c25.762,9.621,52.762,14.926,80.257,15.762c0.055,0.002,0.109,0.002,0.164,0.002
		s0.109,0,0.164-0.002c20.045-0.611,39.822-3.625,59.053-8.926C375.804,753.446,361.729,742.034,348.687,729.187z"/>
	<path fill="#5ABCE2" d="M904.459,548.397c-0.076-0.203-0.164-0.4-0.264-0.594L794.287,335.966
		c-0.926-1.781-2.764-2.902-4.773-2.902s-3.848,1.119-4.773,2.902L674.833,547.804c-0.102,0.193-0.189,0.391-0.264,0.594
		c-11.838,31.695-10.625,66.102,3.416,96.879c14.037,30.779,39.225,54.248,70.923,66.086c12.98,4.846,26.588,7.518,40.441,7.941
		c0.055,0.002,0.109,0.002,0.164,0.002s0.109,0,0.164-0.002c13.85-0.424,27.457-3.096,40.439-7.941
		C895.537,686.931,928.889,613.823,904.459,548.397z"/>
</g>
<path fill="#68CCEA" d="M904.459,548.397c-0.076-0.203-0.164-0.4-0.264-0.594L794.287,335.966c-0.926-1.781-2.764-2.902-4.773-2.902
	c-0.01,0-0.021,0.004-0.033,0.004l-43.266,251.603c-0.04,0.236-0.065,0.475-0.076,0.713c-1.831,37.242,10.945,72.961,35.98,100.584
	c10.727,11.836,23.164,21.559,36.797,28.977c3.777-1.023,7.516-2.203,11.201-3.58C895.537,686.931,928.889,613.823,904.459,548.397z
	"/>
<g>
	<g>
		<path fill="#5ABCE2" d="M614.462,938.8l-24.212-91.562c-0.306-1.155-1.209-2.03-2.345-2.266c-1.137-0.236-2.312,0.207-3.054,1.146
			l-58.632,74.382c-0.08,0.102-0.155,0.209-0.223,0.319c-14.828,24.221-8.06,56.126,15.095,71.125
			c4.597,2.972,9.61,5.128,14.906,6.404c0.032,0.008,0.062,0.015,0.095,0.021c0.03,0.007,0.061,0.013,0.094,0.019
			c5.36,0.934,10.819,0.951,16.221,0.05c27.208-4.551,46.108-31.135,42.132-59.258C614.521,939.05,614.495,938.924,614.462,938.8z"
			/>
		<path fill="#68CCEA" d="M614.538,939.179c-0.018-0.129-0.043-0.255-0.076-0.379l-24.212-91.562
			c-0.306-1.155-1.209-2.03-2.345-2.266c-0.324-0.067-0.648-0.065-0.968-0.027l-38.568,100.449c-0.054,0.135-0.096,0.278-0.134,0.42
			c-4.971,19.485,0.149,39.167,11.997,53.103c4.045,0.356,8.127,0.196,12.175-0.479
			C599.616,993.884,618.516,967.301,614.538,939.179z"/>
	</g>
	<g>
		<path fill="#5ABCE2" d="M659.534,881.185l-16.237-61.406c-0.205-0.774-0.812-1.361-1.572-1.52
			c-0.763-0.158-1.552,0.139-2.049,0.769l-39.32,49.884c-0.055,0.067-0.104,0.14-0.149,0.214
			c-9.944,16.243-5.405,37.641,10.123,47.699c3.083,1.993,6.445,3.439,9.997,4.296c0.021,0.005,0.041,0.01,0.062,0.014
			c0.021,0.004,0.041,0.008,0.063,0.012c3.595,0.627,7.256,0.639,10.878,0.034c18.247-3.053,30.923-20.881,28.256-39.741
			C659.574,881.352,659.557,881.268,659.534,881.185z"/>
		<path fill="#68CCEA" d="M659.585,881.438c-0.012-0.087-0.028-0.171-0.051-0.254l-16.237-61.406
			c-0.205-0.774-0.812-1.361-1.572-1.52c-0.218-0.045-0.436-0.044-0.649-0.019l-25.866,67.366c-0.035,0.09-0.063,0.187-0.09,0.281
			c-3.333,13.068,0.101,26.268,8.046,35.613c2.713,0.239,5.45,0.132,8.165-0.321C649.578,918.126,662.253,900.298,659.585,881.438z"
			/>
	</g>
	<g>
		<path fill="#5ABCE2" d="M665.758,938.762l-18.889-71.436c-0.238-0.901-0.944-1.584-1.829-1.768
			c-0.888-0.185-1.806,0.161-2.384,0.894l-45.742,58.031c-0.063,0.079-0.122,0.163-0.174,0.249
			c-11.568,18.896-6.288,43.789,11.776,55.49c3.587,2.318,7.498,4.001,11.63,4.997c0.024,0.006,0.048,0.012,0.072,0.017
			c0.024,0.004,0.048,0.009,0.074,0.014c4.182,0.729,8.441,0.742,12.654,0.039c21.228-3.551,35.974-24.291,32.871-46.231
			C665.805,938.956,665.784,938.858,665.758,938.762z"/>
		<path fill="#68CCEA" d="M665.817,939.058c-0.014-0.102-0.033-0.199-0.06-0.296l-18.889-71.436
			c-0.238-0.901-0.944-1.584-1.829-1.768c-0.254-0.053-0.507-0.052-0.756-0.022l-30.091,78.37c-0.041,0.104-0.074,0.217-0.104,0.327
			c-3.878,15.202,0.117,30.558,9.36,41.43c3.155,0.278,6.34,0.153,9.498-0.374C654.176,981.737,668.921,960.997,665.817,939.058z"/>
	</g>
</g>
</svg>
